<?xml version="1.0" encoding="utf-8"?>
<!-- Generator: Adobe Illustrator 17.0.0, SVG Export Plug-In . SVG Version: 6.00 Build 0)  -->
<!DOCTYPE svg PUBLIC "-//W3C//DTD SVG 1.1//EN" "http://www.w3.org/Graphics/SVG/1.1/DTD/svg11.dtd">
<svg version="1.1" id="Layer_1" xmlns="http://www.w3.org/2000/svg" xmlns:xlink="http://www.w3.org/1999/xlink" x="0px" y="0px"
	 width="340px" height="512px" viewBox="85.5 0 340 512" enable-background="new 85.5 0 340 512" xml:space="preserve">
<path fill="none" stroke="#000000" stroke-miterlimit="10" d="M406,511.98V523H113.83v-13.77c0.13-0.12,0.26-0.24,0.39-0.37
	L256,367.08l141.78,141.81c2.05,2.02,4.78,3.11,7.55,3.11C405.55,512,405.78,511.99,406,511.98z"/>
<path fill="#7D2DE4" stroke="#000000" stroke-miterlimit="10" d="M406,22.28v489.7c-0.22,0.01-0.45,0.02-0.67,0.02
	c-2.77,0-5.5-1.09-7.55-3.11L256,367.08L114.22,508.86c-0.13,0.13-0.26,0.25-0.39,0.37V15.17h286.04
	C402.11,17.35,404.17,19.73,406,22.28z"/>
<g>
	<g>
		<g>
			<path d="M406,22.28c-1.83-2.55-3.89-4.93-6.13-7.11C390.26,5.78,377.12,0,362.67,0H149.33C119.94,0,96,23.92,96,53.33v448
				c0,4.31,2.6,8.22,6.59,9.84c3.82,1.61,8.2,0.82,11.24-1.94c0.13-0.12,0.26-0.24,0.39-0.37L256,367.08l141.78,141.81
				c2.05,2.02,4.78,3.11,7.55,3.11c0.22,0,0.45-0.01,0.67-0.02c1.15-0.07,2.31-0.33,3.41-0.79c3.99-1.64,6.59-5.55,6.59-9.86v-448
				C416,41.76,412.29,31.04,406,22.28z M394.67,475.56L263.55,344.45c-2.09-2.07-4.82-3.12-7.55-3.12s-5.46,1.05-7.55,3.14
				L117.33,475.58V53.33c0-17.64,14.36-32,32-32h213.34c17.64,0,32,14.36,32,32V475.56z"/>
			<path fill="#FFFFFF" d="M406,15.17v7.11c-1.83-2.55-3.89-4.93-6.13-7.11H406z"/>
		</g>
	</g>
</g>
</svg>
