<svg width="16" height="12" viewBox="0 0 16 12" fill="none" xmlns="http://www.w3.org/2000/svg">
<path d="M0 6.00003C0 5.33729 0.5057 4.80003 1.12951 4.80003H14.8705C15.4943 4.80003 16 5.33729 16 6.00003C16 6.66277 15.4943 7.20002 14.8705 7.20002H1.12951C0.505701 7.20002 0 6.66277 0 6.00003Z" fill="#E66366"/>
<path d="M0 1.19999C0 0.537256 0.5057 0 1.12951 0H14.8705C15.4943 0 16 0.537256 16 1.19999C16 1.86273 15.4943 2.39999 14.8705 2.39999H1.12951C0.505701 2.39999 0 1.86273 0 1.19999Z" fill="#E66366"/>
<path d="M0 10.8C0 10.1373 0.5057 9.60001 1.12951 9.60001H14.8705C15.4943 9.60001 16 10.1373 16 10.8C16 11.4627 15.4943 12 14.8705 12H1.12951C0.505701 12 0 11.4627 0 10.8Z" fill="#E66366"/>
</svg>
