<svg width="18" height="18" viewBox="0 0 18 18" fill="none" xmlns="http://www.w3.org/2000/svg">
<g clip-path="url(#clip0_128_133)">
<path d="M2.25 2.25V17.4375C2.24993 17.5352 2.2753 17.6312 2.3236 17.7161C2.37191 17.801 2.44149 17.8718 2.5255 17.9217C2.60951 17.9715 2.70505 17.9986 2.80272 18.0003C2.90038 18.002 2.99681 17.9783 3.0825 17.9314L9 14.7026L14.9175 17.9314C15.0032 17.9783 15.0996 18.002 15.1973 18.0003C15.2949 17.9986 15.3905 17.9715 15.4745 17.9217C15.5585 17.8718 15.6281 17.801 15.6764 17.7161C15.7247 17.6312 15.7501 17.5352 15.75 17.4375V2.25C15.75 1.65326 15.5129 1.08097 15.091 0.65901C14.669 0.237053 14.0967 0 13.5 0L4.5 0C3.90326 0 3.33097 0.237053 2.90901 0.65901C2.48705 1.08097 2.25 1.65326 2.25 2.25Z" fill="#E66366"/>
</g>
<defs>
<clipPath id="clip0_128_133">
<rect width="18" height="18" fill="white"/>
</clipPath>
</defs>
</svg>
