<svg width="20" height="16" viewBox="0 0 20 16" fill="none" xmlns="http://www.w3.org/2000/svg">
<path d="M18.989 0H0.703297C0.314286 0 0 0.325 0 0.727273V15.2727C0 15.675 0.314286 16 0.703297 16H18.989C19.378 16 19.6923 15.675 19.6923 15.2727V0.727273C19.6923 0.325 19.378 0 18.989 0ZM18.1099 2.51818V14.3636H1.58242V2.51818L0.975824 2.02955L1.83956 0.881818L2.78022 1.63864H16.9143L17.8549 0.881818L18.7187 2.02955L18.1099 2.51818ZM9.84616 7.31818L1.83736 0.879545L0.973627 2.02727L9.08791 8.55227C9.30382 8.72573 9.56945 8.81989 9.84286 8.81989C10.1163 8.81989 10.3819 8.72573 10.5978 8.55227L18.1099 2.51818L18.7165 2.02955L17.8527 0.881818L9.84616 7.31818Z" fill="#777777"/>
</svg>
