<svg width="16" height="20" viewBox="0 0 16 20" fill="none" xmlns="http://www.w3.org/2000/svg">
<path d="M0.5 5C0.5 4.33696 0.763392 3.70107 1.23223 3.23223C1.70107 2.76339 2.33696 2.5 3 2.5H10.5C11.163 2.5 11.7989 2.76339 12.2678 3.23223C12.7366 3.70107 13 4.33696 13 5V19.375C12.9999 19.4881 12.9692 19.599 12.9111 19.6959C12.853 19.7929 12.7697 19.8723 12.67 19.9257C12.5703 19.979 12.4581 20.0044 12.3451 19.999C12.2322 19.9936 12.1229 19.9576 12.0287 19.895L6.75 16.3762L1.47125 19.895C1.37713 19.9576 1.26779 19.9936 1.15486 19.999C1.04194 20.0044 0.929666 19.979 0.829999 19.9257C0.730332 19.8723 0.647005 19.7929 0.588893 19.6959C0.53078 19.599 0.500058 19.4881 0.5 19.375V5ZM3 3.75C2.66848 3.75 2.35054 3.8817 2.11612 4.11612C1.8817 4.35054 1.75 4.66848 1.75 5V18.2075L6.40375 15.105C6.50633 15.0367 6.62679 15.0003 6.75 15.0003C6.87321 15.0003 6.99367 15.0367 7.09625 15.105L11.75 18.2075V5C11.75 4.66848 11.6183 4.35054 11.3839 4.11612C11.1495 3.8817 10.8315 3.75 10.5 3.75H3Z" fill="#777777"/>
<path d="M3.33496 1.25H13C13.3315 1.25 13.6494 1.3817 13.8838 1.61612C14.1183 1.85054 14.25 2.16848 14.25 2.5V17.21L14.5287 17.395C14.6228 17.4576 14.7322 17.4936 14.8451 17.499C14.958 17.5044 15.0703 17.479 15.17 17.4257C15.2696 17.3723 15.353 17.2929 15.4111 17.1959C15.4692 17.099 15.4999 16.9881 15.5 16.875V2.5C15.5 1.83696 15.2366 1.20107 14.7677 0.732233C14.2989 0.263392 13.663 0 13 0L5.49996 0C5.06113 1.1148e-05 4.63003 0.115532 4.25 0.334952C3.86996 0.554373 3.55438 0.869961 3.33496 1.25Z" fill="#777777"/>
</svg>
