<svg width="20" height="20" viewBox="0 0 20 20" fill="none" xmlns="http://www.w3.org/2000/svg">
<path fill-rule="evenodd" clip-rule="evenodd" d="M4.88903 2.5C4.88903 2.27899 4.96864 2.06702 5.11033 1.91074C5.25202 1.75446 5.4442 1.66667 5.64459 1.66667H17.7334C17.9338 1.66667 18.126 1.75446 18.2677 1.91074C18.4094 2.06702 18.489 2.27899 18.489 2.5V17.5C18.489 17.721 18.4094 17.933 18.2677 18.0893C18.126 18.2455 17.9338 18.3333 17.7334 18.3333H5.64459C5.4442 18.3333 5.25202 18.2455 5.11033 18.0893C4.96864 17.933 4.88903 17.721 4.88903 17.5V14.1667C4.88903 13.9457 4.80943 13.7337 4.66774 13.5774C4.52604 13.4211 4.33387 13.3333 4.13348 13.3333C3.9331 13.3333 3.74092 13.4211 3.59923 13.5774C3.45753 13.7337 3.37793 13.9457 3.37793 14.1667V17.5C3.37793 18.163 3.61674 18.7989 4.04182 19.2678C4.4669 19.7366 5.04343 20 5.64459 20H17.7334C18.3346 20 18.9111 19.7366 19.3362 19.2678C19.7613 18.7989 20.0001 18.163 20.0001 17.5V2.5C20.0001 1.83696 19.7613 1.20107 19.3362 0.732233C18.9111 0.263392 18.3346 0 17.7334 0H5.64459C5.04343 0 4.4669 0.263392 4.04182 0.732233C3.61674 1.20107 3.37793 1.83696 3.37793 2.5V5.83333C3.37793 6.05435 3.45753 6.26631 3.59923 6.42259C3.74092 6.57887 3.9331 6.66667 4.13348 6.66667C4.33387 6.66667 4.52604 6.57887 4.66774 6.42259C4.80943 6.26631 4.88903 6.05435 4.88903 5.83333V2.5Z" fill="#333333"/>
<path fill-rule="evenodd" clip-rule="evenodd" d="M13.7349 10.5902C13.8052 10.5127 13.861 10.4208 13.8991 10.3195C13.9372 10.2183 13.9568 10.1098 13.9568 10.0002C13.9568 9.89055 13.9372 9.78201 13.8991 9.68077C13.861 9.57953 13.8052 9.48757 13.7349 9.41016L9.20154 4.41016C9.1313 4.33268 9.0479 4.27122 8.95612 4.22929C8.86433 4.18735 8.76596 4.16577 8.66661 4.16577C8.56727 4.16577 8.46889 4.18735 8.37711 4.22929C8.28533 4.27122 8.20193 4.33268 8.13168 4.41016C8.06143 4.48764 8.00571 4.57962 7.96769 4.68085C7.92967 4.78208 7.91011 4.89058 7.91011 5.00016C7.91011 5.10973 7.92967 5.21823 7.96769 5.31946C8.00571 5.4207 8.06143 5.51268 8.13168 5.59016L11.376 9.16683H0.755552C0.555167 9.16683 0.362989 9.25462 0.221296 9.4109C0.0796025 9.56718 0 9.77915 0 10.0002C0 10.2212 0.0796025 10.4331 0.221296 10.5894C0.362989 10.7457 0.555167 10.8335 0.755552 10.8335H11.376L8.13168 14.4102C8.06143 14.4876 8.00571 14.5796 7.96769 14.6809C7.92967 14.7821 7.91011 14.8906 7.91011 15.0002C7.91011 15.1097 7.92967 15.2182 7.96769 15.3195C8.00571 15.4207 8.06143 15.5127 8.13168 15.5902C8.20193 15.6676 8.28533 15.7291 8.37711 15.771C8.46889 15.813 8.56727 15.8345 8.66661 15.8345C8.76596 15.8345 8.86433 15.813 8.95612 15.771C9.0479 15.7291 9.1313 15.6676 9.20154 15.5902L13.7349 10.5902Z" fill="#333333"/>
</svg>
