<svg width="20" height="20" viewBox="0 0 20 20" fill="none" xmlns="http://www.w3.org/2000/svg">
<path fill-rule="evenodd" clip-rule="evenodd" d="M4.88891 2.5C4.88891 2.27899 4.96851 2.06702 5.11021 1.91074C5.2519 1.75446 5.44408 1.66667 5.64446 1.66667H17.7333C17.9337 1.66667 18.1259 1.75446 18.2676 1.91074C18.4092 2.06702 18.4888 2.27899 18.4888 2.5V17.5C18.4888 17.721 18.4092 17.933 18.2676 18.0893C18.1259 18.2455 17.9337 18.3333 17.7333 18.3333H5.64446C5.44408 18.3333 5.2519 18.2455 5.11021 18.0893C4.96851 17.933 4.88891 17.721 4.88891 17.5V14.1667C4.88891 13.9457 4.80931 13.7337 4.66762 13.5774C4.52592 13.4211 4.33374 13.3333 4.13336 13.3333C3.93297 13.3333 3.7408 13.4211 3.5991 13.5774C3.45741 13.7337 3.37781 13.9457 3.37781 14.1667V17.5C3.37781 18.163 3.61662 18.7989 4.0417 19.2678C4.46678 19.7366 5.04331 20 5.64446 20H17.7333C18.3344 20 18.911 19.7366 19.3361 19.2678C19.7611 18.7989 20 18.163 20 17.5V2.5C20 1.83696 19.7611 1.20107 19.3361 0.732233C18.911 0.263392 18.3344 0 17.7333 0H5.64446C5.04331 0 4.46678 0.263392 4.0417 0.732233C3.61662 1.20107 3.37781 1.83696 3.37781 2.5V5.83333C3.37781 6.05435 3.45741 6.26631 3.5991 6.42259C3.7408 6.57887 3.93297 6.66667 4.13336 6.66667C4.33374 6.66667 4.52592 6.57887 4.66762 6.42259C4.80931 6.26631 4.88891 6.05435 4.88891 5.83333V2.5Z" fill="#E66366"/>
<path fill-rule="evenodd" clip-rule="evenodd" d="M13.7349 10.59C13.8052 10.5126 13.861 10.4207 13.8991 10.3194C13.9372 10.2182 13.9568 10.1096 13.9568 10C13.9568 9.89042 13.9372 9.78189 13.8991 9.68065C13.861 9.57941 13.8052 9.48745 13.7349 9.41004L9.20154 4.41004C9.1313 4.33256 9.0479 4.2711 8.95612 4.22916C8.86433 4.18723 8.76596 4.16565 8.66661 4.16565C8.56727 4.16565 8.46889 4.18723 8.37711 4.22916C8.28533 4.2711 8.20193 4.33256 8.13168 4.41004C8.06143 4.48752 8.00571 4.5795 7.96769 4.68073C7.92967 4.78196 7.91011 4.89046 7.91011 5.00004C7.91011 5.10961 7.92967 5.21811 7.96769 5.31934C8.00571 5.42057 8.06143 5.51256 8.13168 5.59004L11.376 9.1667H0.755552C0.555167 9.1667 0.362989 9.2545 0.221296 9.41078C0.0796025 9.56706 0 9.77902 0 10C0 10.2211 0.0796025 10.433 0.221296 10.5893C0.362989 10.7456 0.555167 10.8334 0.755552 10.8334H11.376L8.13168 14.41C8.06143 14.4875 8.00571 14.5795 7.96769 14.6807C7.92967 14.782 7.91011 14.8905 7.91011 15C7.91011 15.1096 7.92967 15.2181 7.96769 15.3193C8.00571 15.4206 8.06143 15.5126 8.13168 15.59C8.20193 15.6675 8.28533 15.729 8.37711 15.7709C8.46889 15.8128 8.56727 15.8344 8.66661 15.8344C8.76596 15.8344 8.86433 15.8128 8.95612 15.7709C9.0479 15.729 9.1313 15.6675 9.20154 15.59L13.7349 10.59Z" fill="#E66366"/>
</svg>
