<svg width="20" height="15" viewBox="0 0 20 15" fill="none" xmlns="http://www.w3.org/2000/svg">
<path fill-rule="evenodd" clip-rule="evenodd" d="M12.4993 13.1243C12.4993 13.29 12.4335 13.449 12.3163 13.5662C12.1991 13.6834 12.0401 13.7492 11.8743 13.7492H1.8749C1.70914 13.7492 1.55018 13.6834 1.43298 13.5662C1.31577 13.449 1.24993 13.29 1.24993 13.1243V1.8749C1.24993 1.70914 1.31577 1.55018 1.43298 1.43298C1.55018 1.31577 1.70914 1.24993 1.8749 1.24993H11.8743C12.0401 1.24993 12.1991 1.31577 12.3163 1.43298C12.4335 1.55018 12.4993 1.70914 12.4993 1.8749V4.37476C12.4993 4.54051 12.5651 4.69947 12.6824 4.81667C12.7996 4.93388 12.9585 4.99972 13.1243 4.99972C13.29 4.99972 13.449 4.93388 13.5662 4.81667C13.6834 4.69947 13.7492 4.54051 13.7492 4.37476V1.8749C13.7492 1.37764 13.5517 0.900755 13.2001 0.549144C12.8485 0.197533 12.3716 0 11.8743 0H1.8749C1.37764 0 0.900755 0.197533 0.549144 0.549144C0.197533 0.900755 0 1.37764 0 1.8749L0 13.1243C0 13.6215 0.197533 14.0984 0.549144 14.45C0.900755 14.8016 1.37764 14.9992 1.8749 14.9992H11.8743C12.3716 14.9992 12.8485 14.8016 13.2001 14.45C13.5517 14.0984 13.7492 13.6215 13.7492 13.1243V10.6244C13.7492 10.4587 13.6834 10.2997 13.5662 10.1825C13.449 10.0653 13.29 9.99944 13.1243 9.99944C12.9585 9.99944 12.7996 10.0653 12.6824 10.1825C12.5651 10.2997 12.4993 10.4587 12.4993 10.6244V13.1243Z" fill="#E66366"/>
<path fill-rule="evenodd" clip-rule="evenodd" d="M19.8164 7.94206C19.8746 7.884 19.9208 7.81504 19.9523 7.73911C19.9838 7.66318 20 7.58179 20 7.49958C20 7.41738 19.9838 7.33598 19.9523 7.26005C19.9208 7.18413 19.8746 7.11516 19.8164 7.05711L16.0666 3.30732C15.9493 3.18996 15.7901 3.12404 15.6242 3.12404C15.4582 3.12404 15.299 3.18996 15.1817 3.30732C15.0643 3.42467 14.9984 3.58383 14.9984 3.74979C14.9984 3.91575 15.0643 4.07492 15.1817 4.19227L17.8653 6.87462H6.87466C6.70891 6.87462 6.54995 6.94046 6.43274 7.05766C6.31554 7.17487 6.24969 7.33383 6.24969 7.49958C6.24969 7.66533 6.31554 7.8243 6.43274 7.9415C6.54995 8.0587 6.70891 8.12455 6.87466 8.12455H17.8653L15.1817 10.8069C15.0643 10.9242 14.9984 11.0834 14.9984 11.2494C14.9984 11.4153 15.0643 11.5745 15.1817 11.6918C15.299 11.8092 15.4582 11.8751 15.6242 11.8751C15.7901 11.8751 15.9493 11.8092 16.0666 11.6918L19.8164 7.94206Z" fill="#E66366"/>
</svg>
