<svg width="20" height="15" viewBox="0 0 20 15" fill="none" xmlns="http://www.w3.org/2000/svg">
<path fill-rule="evenodd" clip-rule="evenodd" d="M12.4993 13.1234C12.4993 13.2892 12.4335 13.4481 12.3163 13.5653C12.1991 13.6825 12.0401 13.7484 11.8743 13.7484H1.8749C1.70914 13.7484 1.55018 13.6825 1.43298 13.5653C1.31577 13.4481 1.24993 13.2892 1.24993 13.1234V1.87404C1.24993 1.70829 1.31577 1.54933 1.43298 1.43212C1.55018 1.31492 1.70914 1.24908 1.8749 1.24908H11.8743C12.0401 1.24908 12.1991 1.31492 12.3163 1.43212C12.4335 1.54933 12.4993 1.70829 12.4993 1.87404V4.3739C12.4993 4.53965 12.5651 4.69861 12.6824 4.81582C12.7996 4.93302 12.9585 4.99887 13.1243 4.99887C13.29 4.99887 13.449 4.93302 13.5662 4.81582C13.6834 4.69861 13.7492 4.53965 13.7492 4.3739V1.87404C13.7492 1.37679 13.5517 0.899901 13.2001 0.54829C12.8485 0.196679 12.3716 -0.000854492 11.8743 -0.000854492H1.8749C1.37764 -0.000854492 0.900755 0.196679 0.549144 0.54829C0.197533 0.899901 0 1.37679 0 1.87404L0 13.1234C0 13.6207 0.197533 14.0976 0.549144 14.4492C0.900755 14.8008 1.37764 14.9983 1.8749 14.9983H11.8743C12.3716 14.9983 12.8485 14.8008 13.2001 14.4492C13.5517 14.0976 13.7492 13.6207 13.7492 13.1234V10.6236C13.7492 10.4578 13.6834 10.2988 13.5662 10.1816C13.449 10.0644 13.29 9.99859 13.1243 9.99859C12.9585 9.99859 12.7996 10.0644 12.6824 10.1816C12.5651 10.2988 12.4993 10.4578 12.4993 10.6236V13.1234Z" fill="#777777"/>
<path fill-rule="evenodd" clip-rule="evenodd" d="M19.8164 7.94119C19.8746 7.88314 19.9208 7.81417 19.9523 7.73824C19.9838 7.66231 20 7.58092 20 7.49871C20 7.41651 19.9838 7.33511 19.9523 7.25918C19.9208 7.18326 19.8746 7.11429 19.8164 7.05624L16.0666 3.30645C15.9492 3.1891 15.7901 3.12317 15.6241 3.12317C15.4581 3.12317 15.299 3.1891 15.1816 3.30645C15.0643 3.4238 14.9984 3.58296 14.9984 3.74892C14.9984 3.91488 15.0643 4.07405 15.1816 4.1914L17.8652 6.87375H6.8746C6.70885 6.87375 6.54989 6.93959 6.43268 7.0568C6.31548 7.174 6.24963 7.33296 6.24963 7.49871C6.24963 7.66446 6.31548 7.82343 6.43268 7.94063C6.54989 8.05784 6.70885 8.12368 6.8746 8.12368H17.8652L15.1816 10.806C15.0643 10.9234 14.9984 11.0825 14.9984 11.2485C14.9984 11.4145 15.0643 11.5736 15.1816 11.691C15.299 11.8083 15.4581 11.8743 15.6241 11.8743C15.7901 11.8743 15.9492 11.8083 16.0666 11.691L19.8164 7.94119Z" fill="#777777"/>
</svg>
