<svg width="30" height="30" viewBox="0 0 30 30" fill="none" xmlns="http://www.w3.org/2000/svg">
<path fill-rule="evenodd" clip-rule="evenodd" d="M12.1873 22.4997C13.5416 22.4997 14.8825 22.233 16.1337 21.7147C17.3849 21.1965 18.5217 20.4369 19.4793 19.4793C20.4369 18.5217 21.1965 17.3849 21.7147 16.1337C22.233 14.8825 22.4997 13.5416 22.4997 12.1873C22.4997 10.8331 22.233 9.49212 21.7147 8.24096C21.1965 6.98981 20.4369 5.85298 19.4793 4.89539C18.5217 3.9378 17.3849 3.1782 16.1337 2.65996C14.8825 2.14171 13.5416 1.87497 12.1873 1.87497C9.45232 1.87497 6.82934 2.96145 4.89539 4.89539C2.96145 6.82934 1.87497 9.45232 1.87497 12.1873C1.87497 14.9223 2.96145 17.5453 4.89539 19.4793C6.82934 21.4132 9.45232 22.4997 12.1873 22.4997ZM24.3747 12.1873C24.3747 15.4196 23.0906 18.5195 20.8051 20.8051C18.5195 23.0906 15.4196 24.3747 12.1873 24.3747C8.95505 24.3747 5.85515 23.0906 3.56959 20.8051C1.28402 18.5195 0 15.4196 0 12.1873C0 8.95505 1.28402 5.85515 3.56959 3.56959C5.85515 1.28402 8.95505 0 12.1873 0C15.4196 0 18.5195 1.28402 20.8051 3.56959C23.0906 5.85515 24.3747 8.95505 24.3747 12.1873Z" fill="#4B4B4B"/>
<path d="M19.3948 22.0158C19.4511 22.0908 19.5111 22.162 19.5786 22.2314L26.7972 29.4501C27.1488 29.8019 27.6257 29.9996 28.1231 29.9998C28.6205 30 29.0975 29.8026 29.4494 29.451C29.8012 29.0994 29.9989 28.6225 29.9991 28.1251C29.9993 27.6277 29.8019 27.1507 29.4503 26.7988L22.2316 19.5802C22.1646 19.5123 22.0925 19.4497 22.016 19.3927C21.2805 20.3956 20.3966 21.2807 19.3948 22.0177V22.0158Z" fill="#4B4B4B"/>
</svg>
