<svg width="14" height="10" viewBox="0 0 14 10" fill="none" xmlns="http://www.w3.org/2000/svg">
<path d="M0 0.915217C0 0.409757 0.409757 0 0.915218 0H12.63C13.1355 0 13.5452 0.409757 13.5452 0.915217C13.5452 1.42068 13.1355 1.83043 12.63 1.83043H0.915217C0.409756 1.83043 0 1.42068 0 0.915217ZM0 4.57609C0 4.07063 0.409757 3.66087 0.915218 3.66087H8.23696C8.74242 3.66087 9.15217 4.07063 9.15217 4.57609C9.15217 5.08155 8.74242 5.4913 8.23696 5.4913H0.915219C0.409758 5.4913 0 5.08155 0 4.57609Z" fill="#272727"/>
<path d="M5.5 8.42C5.5 7.91454 5.09024 7.50478 4.58478 7.50478H0.915218C0.409757 7.50478 0 7.91454 0 8.42C0 8.92546 0.409757 9.33522 0.915218 9.33522H4.58478C5.09024 9.33522 5.5 8.92546 5.5 8.42Z" fill="#272727"/>
</svg>
