<svg width="18" height="15" viewBox="0 0 18 15" fill="none" xmlns="http://www.w3.org/2000/svg">
<path d="M0 6.76667C0 7.18095 0.414286 7.18095 0.690476 7.31905C1.93333 7.73333 3.03809 8.00952 4.28095 8.42381C4.55714 8.5619 4.69524 8.42381 4.83333 8.28571C6.90476 7.04286 8.97619 5.66191 11.0476 4.41905C11.8762 3.86667 12.7048 3.31429 13.5333 2.76191C13.6714 2.62381 13.9476 2.48572 14.2238 2.76191C14.0857 2.9 13.9476 3.0381 13.8095 3.17619C11.4619 5.24762 9.25238 7.31905 6.90476 9.39048C6.76667 9.52857 6.76667 9.66667 6.76667 9.94286C6.76667 10.3571 6.76667 10.9095 6.62857 11.3238C6.62857 12.1524 6.49048 12.8429 6.49048 13.6714C6.76667 13.6714 7.04286 13.5333 7.18095 13.3952C7.87143 12.7048 8.42381 12.1524 9.11429 11.4619C9.25238 11.4619 9.25238 11.6 9.39048 11.6C10.6333 12.4286 11.7381 13.2571 12.981 14.0857C13.8095 14.6381 14.3619 14.5 14.6381 13.5333C15.1905 10.7714 15.881 8.00952 16.4333 5.10952C16.7095 3.86667 16.9857 2.62381 17.2619 1.38095C17.4 0.966668 17.4 0.552382 16.9857 0.138096C16.5714 -0.138094 16.2952 1.10641e-06 15.881 0.138096C12.0143 1.65714 8.28571 3.0381 4.41905 4.55714C3.17619 5.10952 1.93333 5.52381 0.552381 6.07619C0.27619 6.21429 0 6.35238 0 6.76667Z" fill="#777777"/>
</svg>
