<svg width="22" height="22" viewBox="0 0 22 22" fill="none" xmlns="http://www.w3.org/2000/svg">
<path d="M0 11.6828C0 11.2238 0 10.7647 0 10.3057C0.0286973 10.0991 0.0516551 9.89825 0.0803524 9.69168C0.390283 7.16689 1.42339 4.97492 3.24853 3.20758C6.08383 0.464743 9.48159 -0.527956 13.3557 0.263908C18.2859 1.26808 21.9477 5.76679 21.9993 10.7934C22.0223 13.0772 21.4426 15.1831 20.1627 17.0767C18.4122 19.6646 15.9959 21.254 12.9195 21.8279C12.512 21.9025 12.0988 21.9426 11.6913 22C11.2321 22 10.773 22 10.3138 22C10.2679 21.9885 10.2162 21.9713 10.1703 21.9656C8.25908 21.8221 6.50281 21.2311 4.91872 20.1581C2.33596 18.4022 0.74613 15.9864 0.172184 12.9165C0.0975708 12.5091 0.0573946 12.096 0 11.6828ZM14.3831 8.49241C14.2798 8.59569 14.1994 8.68176 14.1133 8.7621C12.5178 10.2024 10.9279 11.6426 9.32662 13.0772C9.20609 13.1862 9.1487 13.2952 9.14296 13.4616C9.13722 13.7772 9.10278 14.0871 9.07982 14.4027C9.04539 14.9363 9.00521 15.47 8.97077 16.0094C9.19461 16.0323 9.34384 15.9233 9.48159 15.7913C9.935 15.3552 10.3884 14.9191 10.8476 14.4773C10.905 14.5117 10.9509 14.5461 10.9968 14.5806C11.8233 15.1888 12.644 15.7971 13.4705 16.3996C14.0559 16.8299 14.4577 16.675 14.6127 15.9692C15.0259 14.0297 15.4391 12.096 15.8466 10.1565C16.0303 9.29001 16.2197 8.42355 16.3976 7.55709C16.455 7.27018 16.5009 6.96032 16.2369 6.73653C15.9844 6.51848 15.7146 6.63899 15.4506 6.74227C12.8277 7.75219 10.2105 8.7621 7.58756 9.77775C6.68647 10.1278 5.78537 10.4721 4.89002 10.8278C4.69488 10.9082 4.4653 11.0172 4.48826 11.2754C4.51121 11.5164 4.74653 11.5795 4.94167 11.6426C5.76816 11.9009 6.59464 12.1533 7.41538 12.4173C7.56461 12.4689 7.6794 12.446 7.8114 12.3657C9.24627 11.459 10.6811 10.5581 12.116 9.65151C12.7072 9.27853 13.3041 8.90555 13.8952 8.53257C14.033 8.45224 14.1707 8.36043 14.3831 8.49241Z" fill="#777777"/>
</svg>
