<svg width="22" height="12" viewBox="0 0 22 12" fill="none" xmlns="http://www.w3.org/2000/svg">
<path d="M7.24388 0.845582C7.42576 0.282071 7.88581 0.0669126 8.35655 0.0464213C9.54411 -0.00480696 10.7317 -0.0252983 11.9192 0.0464213C12.6361 0.0874039 12.9463 0.486984 12.9463 1.19393C12.9463 2.16727 12.8928 3.14061 12.8928 4.11394C12.8928 4.48279 12.9035 4.86188 12.9784 5.23072C13.0854 5.77374 13.4385 5.89669 13.8343 5.50735C14.2302 5.11802 14.6153 4.69795 14.8935 4.23689C15.4819 3.24306 16.0276 2.22874 16.5411 1.20418C16.7765 0.73288 17.0546 0.49723 17.6324 0.507475C18.6595 0.527967 19.6972 0.466493 20.735 0.456247C21.9761 0.435756 22.3184 0.886564 21.6979 1.92138C21.056 2.99717 20.2536 3.991 19.526 5.01556C19.2479 5.4049 18.9376 5.78398 18.6488 6.17332C18.3171 6.61388 18.3706 7.03395 18.7771 7.41304C19.2693 7.88434 19.8042 8.31466 20.2643 8.80645C20.7885 9.35972 21.3127 9.93347 21.7407 10.5482C22.2542 11.2961 21.9226 11.8801 20.9704 11.9519C20.4889 11.9928 20.0075 11.9724 19.526 11.9724C19.0981 11.9724 18.6701 11.9416 18.2422 11.9826C17.3221 12.0851 16.6053 11.7265 15.9955 11.1322C15.5247 10.6712 15.1075 10.1486 14.6046 9.71831C14.3479 9.49291 13.8985 9.21628 13.6845 9.29824C13.4064 9.4007 13.2245 9.83102 13.064 10.1589C12.9677 10.3638 12.9677 10.6199 12.957 10.8658C12.9035 11.7265 12.6361 11.9211 11.7267 11.9724C8.32445 12.1773 5.91723 10.6199 4.02356 8.0995C2.46154 6.04013 1.24188 3.82707 0.161307 1.54229C-0.181054 0.82509 0.0115241 0.507475 0.835328 0.466493C1.80891 0.415265 2.7932 0.42551 3.77748 0.446002C4.31242 0.456247 4.61199 0.784108 4.84736 1.23492C5.52138 2.47464 6.2275 3.69387 6.95501 4.9131C7.1155 5.18974 7.38296 5.42539 7.63973 5.62005C7.9607 5.86595 8.27096 5.80448 8.37795 5.4049C8.70961 4.14468 8.72031 2.86397 8.35655 1.61401C8.29236 1.3886 7.9607 1.21443 7.73602 1.05049C7.59694 0.948038 7.41506 0.917301 7.24388 0.845582Z" fill="#777777"/>
</svg>
